<svg width="48" height="48" viewBox="0 0 48 48" fill="none" xmlns="http://www.w3.org/2000/svg">
<g clip-path="url(#clip0_2105_1401)">
<mask id="mask0_2105_1401" style="mask-type:luminance" maskUnits="userSpaceOnUse" x="-3" y="2" width="112" height="145">
<path d="M-2.4 2.80005H108.873V146.8H-2.4V2.80005Z" fill="white"/>
</mask>
<g mask="url(#mask0_2105_1401)">
<path d="M35.9415 21.2576C36.2295 24.6125 30.9497 27.8056 24.149 28.389C17.3483 28.9725 11.6017 26.7252 11.3141 23.3705C11.0261 20.015 16.3059 16.8221 23.1066 16.2387C29.9073 15.6554 35.6539 17.9021 35.9415 21.2576Z" fill="#BBE6FB"/>
</g>
<mask id="mask1_2105_1401" style="mask-type:luminance" maskUnits="userSpaceOnUse" x="-3" y="2" width="112" height="145">
<path d="M-2.4 2.80005H108.873V146.8H-2.4V2.80005Z" fill="white"/>
</mask>
<g mask="url(#mask1_2105_1401)">
<mask id="mask2_2105_1401" style="mask-type:luminance" maskUnits="userSpaceOnUse" x="15" y="16" width="17" height="12">
<path d="M15.056 16.6311H31.1087V27.9358H15.056V16.6311Z" fill="white"/>
</mask>
<g mask="url(#mask2_2105_1401)">
<g opacity="0.350006">
<path d="M23.3065 16.6321C20.7123 16.5899 17.6767 17.6199 15.418 18.5845C15.1829 19.2619 15.0563 19.9825 15.0563 20.7294C15.0563 24.709 18.6498 27.9355 23.0827 27.9355C27.5156 27.9355 31.1091 24.709 31.1091 20.7294C31.1091 19.4699 30.7483 18.2866 30.1158 17.2565C28.3087 16.9755 25.8232 16.673 23.3065 16.6321Z" fill="white"/>
</g>
</g>
</g>
<mask id="mask3_2105_1401" style="mask-type:luminance" maskUnits="userSpaceOnUse" x="-3" y="2" width="112" height="145">
<path d="M-2.4 2.80005H108.873V146.8H-2.4V2.80005Z" fill="white"/>
</mask>
<g mask="url(#mask3_2105_1401)">
<path d="M23.0823 16.6315C21.6461 16.5438 19.1707 17.2931 17.1065 18.0406C16.7929 18.7808 16.6187 19.5908 16.6187 20.4408C16.6187 23.9277 19.7801 26.7544 23.1245 26.7544C26.4469 26.7544 29.3863 23.9231 29.6303 20.4408C29.7096 19.3068 29.3192 18.2382 28.7772 17.3169C26.6372 16.94 24.3661 16.7099 23.0823 16.6315Z" fill="white"/>
</g>
<mask id="mask4_2105_1401" style="mask-type:luminance" maskUnits="userSpaceOnUse" x="-3" y="2" width="112" height="145">
<path d="M-2.4 2.80005H108.873V146.8H-2.4V2.80005Z" fill="white"/>
</mask>
<g mask="url(#mask4_2105_1401)">
<path d="M19.3967 19.9827C19.5729 19.5925 19.8398 19.4014 20.0983 19.0743C20.0696 18.9969 20.0067 18.7436 20.0067 18.6558C20.0067 18.2638 20.3247 17.9456 20.7169 17.9456C20.8094 17.9456 20.8978 17.964 20.9787 17.9961C22.1542 17.1003 23.7016 16.7098 25.2567 17.0574C25.3987 17.0894 25.538 17.1281 25.6747 17.1707C24.1378 16.9576 22.4054 17.502 21.2271 18.453C21.2631 18.538 21.3629 18.7807 21.3629 18.8783C21.3629 19.2705 21.1091 19.366 20.7169 19.366C20.6278 19.366 20.5427 19.3489 20.464 19.3189C20.1978 19.6763 19.8716 20.3572 19.712 20.7829C20.3636 21.3658 20.9523 21.577 21.7196 21.8638C21.7176 21.8272 21.746 21.7934 21.746 21.7561C21.746 20.5738 22.7869 19.6129 23.9694 19.6129C25.0291 19.6129 25.9065 20.3834 26.0778 21.3943C26.6065 21.058 27.1178 20.8001 27.5074 20.3016C27.4165 20.1907 27.3185 19.8767 27.3185 19.7221C27.3185 19.3663 27.6073 19.0778 27.9631 19.0778C28.0134 19.0778 28.0618 19.085 28.1089 19.096C28.3067 18.6894 28.456 18.2585 28.5514 17.8141C26.7023 16.4452 23.1247 16.632 23.1247 16.632C23.1247 16.632 20.2778 16.4834 18.3505 17.4227C18.4791 18.352 18.8498 19.2354 19.3967 19.9827Z" fill="#373535"/>
<path d="M28.2347 19.4494C28.3654 19.5672 28.4367 19.6706 28.4929 19.7714C28.6658 20.0823 28.3189 20.3668 27.9631 20.3668C27.9269 20.3668 27.892 20.3619 27.8572 20.3561C27.4563 20.9826 26.7541 21.7861 26.1303 22.1904C27.0869 22.3472 27.9889 22.7303 28.7067 23.3223C29.2294 22.3857 29.6303 21.0334 29.6303 19.8846C29.6303 19.0103 29.2443 18.3694 28.6616 17.8992C28.6311 18.3675 28.3811 19.0226 28.2347 19.4494Z" fill="#373535"/>
<path d="M20.4699 25.3811C20.7886 24.5009 21.5726 23.8189 22.3142 23.2189C22.2057 23.0704 22.043 22.7026 21.9751 22.5284C21.0706 22.2533 20.2702 21.7384 19.6495 21.0567C19.645 21.0766 19.6393 21.0958 19.6346 21.1156C19.5177 21.6395 19.4962 22.1644 19.5544 22.6764C19.9875 22.7571 20.3153 23.1366 20.3153 23.5931C20.3153 23.8638 20.0781 24.2562 19.8939 24.4269C20.0941 24.8589 20.2306 25.0673 20.4699 25.3811Z" fill="#373535"/>
<path d="M20.4138 26.1201C20.0336 25.7421 19.7707 24.9881 19.5239 24.5147C19.4778 24.5218 19.4305 24.5267 19.3821 24.5267C18.8665 24.5267 18.3263 24.094 18.4485 23.5932C18.5161 23.3161 18.7074 23.1349 19.0188 22.9836C18.9479 22.4096 18.9287 21.5845 19.0619 20.9878C19.1001 20.8171 19.181 20.7371 19.2347 20.5745C18.6658 19.742 18.2981 18.6492 18.2981 17.5651C18.2981 17.5254 18.3001 17.4863 18.301 17.4471C17.3396 17.9292 16.6187 18.6889 16.6187 19.8847C16.6187 22.5298 18.1421 25.1245 20.4088 26.1416C20.4105 26.1345 20.4119 26.1272 20.4138 26.1201Z" fill="#373535"/>
<path d="M25.9875 22.4634C25.6946 23.2965 24.9026 23.8948 23.9693 23.8948C23.4701 23.8948 23.0121 23.7226 22.6481 23.4365C21.8977 24.0208 21.217 25.0474 20.871 25.9379C21.0262 26.105 21.1344 26.2425 21.3086 26.3906C21.8335 26.5274 22.5564 26.3906 23.1246 26.3906C25.4101 26.3906 27.4342 25.3739 28.5948 23.591C27.8232 23.0566 26.913 22.5481 25.9875 22.4634Z" fill="#373535"/>
</g>
<mask id="mask5_2105_1401" style="mask-type:luminance" maskUnits="userSpaceOnUse" x="-3" y="2" width="112" height="145">
<path d="M-2.4 2.80005H108.873V146.8H-2.4V2.80005Z" fill="white"/>
</mask>
<g mask="url(#mask5_2105_1401)">
<path d="M19.3381 20.292C19.5143 19.9018 19.7352 19.5407 19.9936 19.2136C19.9648 19.1364 19.9481 19.0529 19.9481 18.9651C19.9481 18.5731 20.2661 18.2549 20.6583 18.2549C20.7508 18.2549 20.8392 18.2733 20.9201 18.3055C22.0956 17.4096 23.643 17.0191 25.1981 17.3667C25.3401 17.3987 25.4794 17.4375 25.6161 17.48C24.0792 17.2669 22.4912 17.738 21.3128 18.6893C21.3488 18.774 21.3685 18.8675 21.3685 18.9651C21.3685 19.3573 21.0505 19.6753 20.6583 19.6753C20.5692 19.6753 20.4841 19.6582 20.4054 19.6282C20.1392 19.9856 19.9216 20.3806 19.7619 20.8064C20.3216 21.4095 21.0085 21.8864 21.7756 22.1731C21.7737 22.1366 21.7699 22.1004 21.7699 22.0631C21.7699 20.8807 22.7283 19.9222 23.9108 19.9222C24.9705 19.9222 25.8479 20.6927 26.0192 21.7036C26.5479 21.3673 27.0178 20.9353 27.4072 20.4367C27.3163 20.3258 27.2599 20.186 27.2599 20.0315C27.2599 19.6756 27.5487 19.3871 27.9045 19.3871C27.9548 19.3871 28.0032 19.3944 28.0503 19.4053C28.2481 18.9987 28.3974 18.5678 28.4928 18.1235C26.6438 16.7546 23.0661 16.9413 23.0661 16.9413C23.0661 16.9413 20.2192 16.7927 18.2919 17.732C18.4205 18.6613 18.7912 19.5447 19.3381 20.292Z" fill="#1287B1"/>
<path d="M28.3345 19.555C28.4652 19.6728 28.549 19.8417 28.549 20.0315C28.549 20.3874 28.2603 20.6761 27.9045 20.6761C27.8683 20.6761 27.8334 20.6712 27.7987 20.6654C27.3978 21.2919 26.8665 21.8261 26.2425 22.2305C27.1647 22.3746 28.0327 22.7659 28.7503 23.3579C29.273 22.4214 29.5718 21.3426 29.5718 20.1939C29.5718 19.3195 29.1858 18.6786 28.603 18.2085C28.5725 18.6768 28.4808 19.1283 28.3345 19.555Z" fill="#1287B1"/>
<path d="M20.5682 25.5928C20.8869 24.7126 21.4408 23.9228 22.1824 23.323C22.0739 23.1742 21.9844 23.0119 21.9166 22.8377C21.0119 22.5626 20.2117 22.0477 19.5909 21.366C19.5864 21.3859 19.5806 21.4051 19.576 21.425C19.4589 21.9488 19.4375 22.4737 19.4959 22.9857C19.9288 23.0664 20.2568 23.4459 20.2568 23.9024C20.2568 24.1731 20.1406 24.4166 19.9564 24.5873C20.1235 24.9415 20.3289 25.279 20.5682 25.5928Z" fill="#1287B1"/>
<path d="M20.4113 26.1094C20.0311 25.7314 19.712 25.2972 19.4654 24.824C19.4191 24.831 19.3718 24.8358 19.3236 24.8358C18.808 24.8358 18.39 24.4178 18.39 23.9023C18.39 23.5329 18.6053 23.2143 18.9167 23.063C18.846 22.4892 18.87 21.8936 19.0034 21.2969C19.0416 21.1263 19.0882 20.9598 19.1418 20.797C18.5729 19.9647 18.2396 18.9583 18.2396 17.8741C18.2396 17.8345 18.2414 17.7954 18.2423 17.7563C17.2809 18.2383 16.56 18.9981 16.56 20.1938C16.56 22.839 18.1396 25.1138 20.4063 26.1309C20.408 26.1238 20.4094 26.1165 20.4113 26.1094Z" fill="#1287B1"/>
<path d="M25.9289 22.7727C25.636 23.6058 24.844 24.2041 23.9107 24.2041C23.4115 24.2041 22.9535 24.032 22.5895 23.7458C21.8391 24.3301 21.2727 25.1267 20.9269 26.0174C21.082 26.1845 21.2478 26.342 21.422 26.49C21.9471 26.6267 22.4978 26.7 23.066 26.7C25.3515 26.7 27.3607 25.52 28.5213 23.7372C27.7497 23.2027 26.8544 22.8574 25.9289 22.7727Z" fill="#1287B1"/>
</g>
<mask id="mask6_2105_1401" style="mask-type:luminance" maskUnits="userSpaceOnUse" x="-3" y="2" width="112" height="145">
<path d="M-2.4 2.80005H108.873V146.8H-2.4V2.80005Z" fill="white"/>
</mask>
<g mask="url(#mask6_2105_1401)">
<mask id="mask7_2105_1401" style="mask-type:luminance" maskUnits="userSpaceOnUse" x="19" y="18" width="9" height="9">
<path d="M19.6367 18.004H27.982V26.342H19.6367V18.004Z" fill="white"/>
</mask>
<g mask="url(#mask7_2105_1401)">
<path d="M26.0042 22.2206L27.9822 21.7488L25.9968 21.6475L27.6126 20.4126L25.7791 21.0699L27.0251 19.3431L25.3042 20.4869L25.9059 18.4657L24.7241 20.1317L24.6971 18.0264L23.9195 19.9017L23.2711 18.004L23.3062 20.2395L22.1857 18.2357L22.7921 20.3633L20.9744 19.0415L22.3982 20.8306L20.1417 20.0008L21.9226 21.3184L19.639 21.3886L21.9739 21.9911L19.637 22.4964L21.9437 22.6637L19.9984 23.9093L22.0015 23.1831L20.6117 24.9433L22.3679 23.527L21.7355 25.889L23.0913 23.9668L22.9013 26.237L23.671 24.179L24.3261 26.342L24.4853 24.1724L25.4577 26.0235L24.8831 23.9062L26.6637 25.2855L25.5142 23.527L27.4677 24.288L25.9741 22.8202L27.977 22.9777L26.0042 22.2206Z" fill="white"/>
</g>
</g>
<mask id="mask8_2105_1401" style="mask-type:luminance" maskUnits="userSpaceOnUse" x="-3" y="2" width="112" height="145">
<path d="M-2.4 2.80005H108.873V146.8H-2.4V2.80005Z" fill="white"/>
</mask>
<g mask="url(#mask8_2105_1401)">
<mask id="mask9_2105_1401" style="mask-type:luminance" maskUnits="userSpaceOnUse" x="4" y="14" width="40" height="13">
<path d="M4.94604 14.7657H43.5645V26.0054H4.94604V14.7657Z" fill="white"/>
</mask>
<g mask="url(#mask9_2105_1401)">
<g opacity="0.350006">
<path d="M4.94604 26.0054C11.0806 19.871 15.98 17.9772 20.4266 17.1126C21.015 16.9983 21.1262 15.7126 21.1262 15.7126C21.1262 15.7126 21.2086 16.6596 21.6204 16.783C22.032 16.9066 22.5671 15.3008 22.5671 15.3008C22.5671 15.3008 22.0731 16.7419 22.5671 16.8243C23.0613 16.9066 23.967 15.4245 23.967 15.4245C23.967 15.4245 23.5966 16.7006 23.8437 16.783C24.0904 16.8654 25.3255 14.9305 25.3255 14.9305C25.3255 14.9305 24.5844 16.2066 25.2844 16.3303C25.9846 16.4537 27.0057 15.4592 27.0057 15.4592C27.0057 15.4592 26.2028 16.3692 26.5606 16.4948C28.084 17.0303 29.3168 15.0503 29.3168 15.0503C29.3168 15.0503 29.0311 15.9185 28.29 16.8654C29.8955 17.277 31.088 14.8583 31.088 14.8583L29.8955 17.277C30.5131 17.6066 32.9837 14.7657 32.9837 14.7657C32.9837 14.7657 31.7073 16.989 30.9662 17.4417C31.3779 17.7712 32.86 16.4537 32.86 16.4537C32.86 16.4537 31.666 17.9357 32.119 18.0181C32.7777 18.5534 35.2066 15.2597 35.2066 15.2597C35.2066 15.2597 34.2599 17.1946 32.86 18.7181C34.03 19.3034 36.936 15.5479 36.936 15.5479C36.936 15.5479 36.8537 16.7419 34.7539 18.6357C36.3184 18.4299 38.3359 15.4656 38.3359 15.4656C38.3359 15.4656 37.5948 17.6888 35.8242 19.2532C37.3604 19.0934 39.8177 15.3008 39.8177 15.3008C39.8177 15.3008 38.871 17.9357 36.936 19.4592C39.077 19.9326 42.1648 16.7419 42.1648 16.7419C42.1648 16.7419 40.9502 19.0065 39.365 19.9326C41.1355 20.6119 43.5646 17.8123 43.5646 17.8123C43.5646 17.8123 41.1355 21.559 37.2655 21.3943C35.9957 21.3403 32.1548 17.5419 23.9259 17.8536C13.0568 18.2654 10.7513 22.8765 4.94604 26.0054Z" fill="#373535"/>
</g>
</g>
<path d="M5.19746 25.5396C11.332 19.4052 16.2313 17.5116 20.6778 16.6468C21.2664 16.5325 21.3776 15.247 21.3776 15.247C21.3776 15.247 21.4598 16.1941 21.8718 16.3174C22.2835 16.4408 22.8185 14.8354 22.8185 14.8354C22.8185 14.8354 22.3245 16.2765 22.8185 16.3586C23.3127 16.4408 24.2184 14.9588 24.2184 14.9588C24.2184 14.9588 23.848 16.235 24.0947 16.3174C24.3418 16.3997 25.5769 14.4646 25.5769 14.4646C25.5769 14.4646 24.8358 15.741 25.5358 15.8645C26.2356 15.9881 27.2571 14.9936 27.2571 14.9936C27.2571 14.9936 26.4542 15.9036 26.812 16.0292C28.3355 16.5645 29.5678 14.5846 29.5678 14.5846C29.5678 14.5846 29.2822 15.4528 28.5415 16.3997C30.1469 16.8116 31.3395 14.3925 31.3395 14.3925L30.1469 16.8116C30.7645 17.1408 33.2347 14.3003 33.2347 14.3003C33.2347 14.3003 31.9587 16.5232 31.2176 16.9761C31.6293 17.3056 33.1115 15.9881 33.1115 15.9881C33.1115 15.9881 31.9175 17.4703 32.3704 17.5525C33.0291 18.0879 35.458 14.7941 35.458 14.7941C35.458 14.7941 34.5109 16.7292 33.1115 18.2525C34.2815 18.8379 37.1875 15.0823 37.1875 15.0823C37.1875 15.0823 37.1051 16.2765 35.0053 18.1703C36.5698 17.9643 38.5873 14.9999 38.5873 14.9999C38.5873 14.9999 37.8462 17.2232 36.0756 18.7877C37.6118 18.6279 40.0691 14.8354 40.0691 14.8354C40.0691 14.8354 39.1224 17.4703 37.1875 18.9936C39.3284 19.467 42.4162 16.2765 42.4162 16.2765C42.4162 16.2765 41.2016 18.5406 39.6164 19.467C41.3869 20.1463 43.816 17.3466 43.816 17.3466C43.816 17.3466 41.3869 21.0934 37.5165 20.9286C36.2471 20.8745 32.4062 17.0761 24.1771 17.3879C13.3082 17.7996 11.0025 22.4106 5.19746 25.5396Z" fill="#373535"/>
</g>
<mask id="mask10_2105_1401" style="mask-type:luminance" maskUnits="userSpaceOnUse" x="-3" y="2" width="112" height="145">
<path d="M-2.4 2.80005H108.873V146.8H-2.4V2.80005Z" fill="white"/>
</mask>
<g mask="url(#mask10_2105_1401)">
<mask id="mask11_2105_1401" style="mask-type:luminance" maskUnits="userSpaceOnUse" x="4" y="21" width="38" height="15">
<path d="M4.78535 21.592H41.0363V35.0134H4.78535V21.592Z" fill="white"/>
</mask>
<g mask="url(#mask11_2105_1401)">
<g opacity="0.350006">
<path d="M4.78535 26.6761C8.02753 28.3025 10.9921 26.4292 14.7283 27.4821C17.5688 28.2828 21.0273 29.2699 25.7206 28.5905C30.4141 27.9114 34.4284 25.8734 36.3432 22.2295C36.9401 20.6035 39.369 22.6003 39.369 22.6003C39.369 22.6003 37.5988 21.8592 37.6401 22.2092C37.6812 22.559 40.2955 23.7735 40.2955 23.7735C40.2955 23.7735 37.9281 23.0325 38.0723 23.5883C38.2164 24.1441 41.0363 26.3674 41.0363 26.3674C41.0363 26.3674 37.8457 23.9383 37.5783 24.2675C37.3104 24.597 38.9368 25.9352 38.9368 25.9352C38.9368 25.9352 36.2401 24.2675 35.293 24.7594C34.6119 25.1126 38.0928 27.3968 38.0928 27.3968C38.0928 27.3968 35.8283 25.6674 35.293 26.1203C34.7579 26.5734 37.8457 30.2786 37.8457 30.2786C37.8457 30.2786 34.3459 26.4908 33.9963 26.6761C33.6461 26.8614 34.9635 28.673 34.9635 28.673C34.9635 28.673 33.2344 26.779 32.7612 27.1085C32.2877 27.4379 35.2313 32.3577 35.2313 32.3577C35.2313 32.3577 32.0406 27.3145 30.7232 28.1581C32.7921 32.6974 32.0201 33.3459 32.0201 33.3459C32.0201 33.3459 31.7561 28.715 29.1792 28.8375C27.8823 28.8994 29.7966 32.2959 29.7966 32.2959C29.7966 32.2959 28.0346 29.1937 26.8612 29.2555C29.0239 33.3485 28.253 35.0132 28.253 35.0132C28.253 35.0132 28.6106 31.5175 25.6773 29.5723C26.7888 30.5601 24.9799 35.0132 24.9799 35.0132C24.9799 35.0132 26.5712 28.4512 23.8063 29.7023C23.3693 29.8995 23.7753 32.9754 23.7753 32.9754C23.7753 32.9754 23.2195 29.455 22.3861 29.6405C21.9001 29.7483 19.2981 34.5192 19.2981 34.5192C19.2981 34.5192 21.4288 29.3625 20.7804 29.5786C20.3081 29.7363 19.4217 31.8637 19.4217 31.8637C19.4217 31.8637 19.8539 29.7639 19.4217 29.6405C18.9895 29.5168 16.5808 31.8637 16.5808 31.8637C16.5808 31.8637 18.3719 29.7639 18.063 29.3315C17.595 28.6765 17.0464 28.6457 16.3955 28.8994C15.4484 29.2685 14.1724 30.999 14.1724 30.999C14.1724 30.999 15.4444 29.2468 15.2221 28.5905C14.8652 27.5359 11.2081 30.6285 11.2081 30.6285C11.2081 30.6285 13.3695 28.5905 12.8755 28.1581C12.3815 27.7259 9.69898 27.8595 8.86135 27.8572C6.39116 27.8495 5.53517 27.2701 4.78535 26.6761Z" fill="#373535"/>
</g>
</g>
<path d="M4.66195 26.3057C7.90413 27.9321 10.8685 26.0588 14.6047 27.1119C17.4452 27.9123 20.9039 28.8995 25.5974 28.2201C30.2909 27.5408 34.3049 25.5028 36.2196 21.8594C36.8165 20.2332 39.2454 22.2297 39.2454 22.2297C39.2454 22.2297 37.4752 21.4888 37.5165 21.8388C37.5576 22.1886 40.1719 23.4032 40.1719 23.4032C40.1719 23.4032 37.8045 22.6623 37.9487 23.2181C38.0929 23.7737 40.913 25.997 40.913 25.997C40.913 25.997 37.7221 23.5677 37.4547 23.8974C37.1872 24.2266 38.8134 25.5646 38.8134 25.5646C38.8134 25.5646 36.1165 23.8974 35.1696 24.3888C34.4883 24.7423 37.9692 27.0263 37.9692 27.0263C37.9692 27.0263 35.7047 25.297 35.1696 25.7499C34.6343 26.203 37.7225 29.9083 37.7225 29.9083C37.7225 29.9083 34.2225 26.1205 33.8727 26.3057C33.5229 26.4912 34.8403 28.3025 34.8403 28.3025C34.8403 28.3025 33.1109 26.4086 32.6376 26.7381C32.1641 27.0674 35.1078 31.9874 35.1078 31.9874C35.1078 31.9874 31.917 26.9439 30.5996 27.7879C32.6685 32.327 31.8965 32.9755 31.8965 32.9755C31.8965 32.9755 31.6325 28.3446 29.0556 28.4674C27.7587 28.5292 29.673 31.9255 29.673 31.9255C29.673 31.9255 27.911 28.8232 26.7378 28.885C28.9007 32.9781 28.1294 34.6428 28.1294 34.6428C28.1294 34.6428 28.487 31.147 25.5538 29.2017C26.6652 30.1897 24.8563 34.6428 24.8563 34.6428C24.8563 34.6428 26.4479 28.0808 23.683 29.3319C23.2461 29.5294 23.6521 32.605 23.6521 32.605C23.6521 32.605 23.0959 29.0848 22.2627 29.2701C21.7765 29.3779 19.1745 34.1488 19.1745 34.1488C19.1745 34.1488 21.3052 28.9921 20.6569 29.2085C20.1845 29.3657 19.2981 31.4932 19.2981 31.4932C19.2981 31.4932 19.7305 29.3935 19.2981 29.2701C18.8659 29.1466 16.4574 31.4932 16.4574 31.4932C16.4574 31.4932 18.2485 29.3935 17.9394 28.9612C17.4714 28.3061 16.9229 28.2755 16.2721 28.5292C15.3249 28.8981 14.0489 30.6286 14.0489 30.6286C14.0489 30.6286 15.3209 28.8763 15.0987 28.2201C14.7416 27.1657 11.0847 30.2581 11.0847 30.2581C11.0847 30.2581 13.2461 28.2201 12.7519 27.7879C12.2579 27.3555 9.5754 27.4894 8.73777 27.4868C6.26759 27.479 5.41177 26.8997 4.66195 26.3057Z" fill="#373535"/>
</g>
</g>
<defs>
<clipPath id="clip0_2105_1401">
<rect width="48" height="48" fill="white"/>
</clipPath>
</defs>
</svg>
