<svg width="48" height="48" viewBox="0 0 48 48" fill="none" xmlns="http://www.w3.org/2000/svg">
<path d="M27.2638 9.39146C25.6808 7.52324 24.3188 5.61405 24.0408 5.22636C24.035 5.21821 24.0273 5.21156 24.0184 5.20698C24.0095 5.20239 23.9996 5.2 23.9896 5.2C23.9796 5.2 23.9697 5.20239 23.9608 5.20698C23.9519 5.21156 23.9442 5.21821 23.9384 5.22636C23.6619 5.61844 22.2999 7.52763 20.7199 9.39585C7.1566 26.6663 22.8573 38.3218 22.8573 38.3218L22.9845 38.4111C23.1045 40.2135 23.4 42.8 23.4 42.8H24.5807C24.5807 42.8 24.8732 40.2193 24.9947 38.4111L25.1234 38.3101C25.1234 38.3101 40.8241 26.6663 27.2638 9.39146ZM23.9911 38.0658C23.9911 38.0658 23.2874 37.466 23.0972 37.1646V37.1324L23.9486 18.3244C23.9505 18.3139 23.9561 18.3045 23.9642 18.2977C23.9724 18.2909 23.9826 18.2872 23.9933 18.2872C24.0039 18.2872 24.0142 18.2909 24.0223 18.2977C24.0305 18.3045 24.036 18.3139 24.0379 18.3244L24.8923 37.1354V37.1675C24.7021 37.4601 23.9984 38.0687 23.9984 38.0687" fill="#00684A"/>
</svg>
