<svg width="48" height="48" viewBox="0 0 48 48" fill="none" xmlns="http://www.w3.org/2000/svg">
<path d="M23.9181 5.52338C15.2138 5.52338 9.01562 10.9939 9.01562 18.782C9.01562 22.5009 12.8962 40.7181 12.8962 40.7181C13.1387 41.796 14.1897 42.5236 15.2946 42.3619C15.5372 42.308 15.7797 42.2272 15.9683 42.1194H16.13C16.5073 42.335 16.9654 42.4428 17.4505 42.3889C17.8278 42.335 18.1781 42.2002 18.4745 41.9847L18.9596 41.9577C19.3369 42.2541 19.8489 42.4428 20.3879 42.4158C20.9268 42.3889 21.4119 42.1463 21.7623 41.796L22.5977 41.7421C22.9749 42.1463 23.487 42.3889 24.0798 42.4158C24.6996 42.4428 25.2656 42.1733 25.6698 41.7691L26.5321 41.823C26.8555 42.1463 27.2867 42.3619 27.7718 42.4158C28.3377 42.4697 28.8766 42.308 29.3078 41.9847L29.8198 42.0116C30.0624 42.2002 30.3588 42.335 30.6822 42.3889C31.1403 42.4697 31.5715 42.3889 31.9757 42.2002C32.1374 42.2811 32.326 42.335 32.5147 42.3619C33.6196 42.5506 34.6706 41.823 34.9131 40.7181C34.9131 40.7181 38.7937 22.5279 38.7937 18.782C38.7937 10.9939 32.5955 5.52338 23.9181 5.52338Z" fill="#57D1E5"/>
<path d="M19.0944 24.064C22.7557 24.064 25.7237 21.096 25.7237 17.4347C25.7237 13.7734 22.7557 10.8054 19.0944 10.8054C15.4331 10.8054 12.4651 13.7734 12.4651 17.4347C12.4651 21.096 15.4331 24.064 19.0944 24.064Z" fill="white"/>
<path d="M19.0944 24.4412C15.2407 24.4412 12.0878 21.2883 12.0878 17.4346C12.0878 13.581 15.2407 10.428 19.0944 10.428C22.948 10.428 26.101 13.581 26.101 17.4346C26.101 21.2883 22.948 24.4412 19.0944 24.4412ZM19.0944 11.1556C15.645 11.1556 12.8154 13.9852 12.8154 17.4346C12.8154 20.884 15.645 23.7136 19.0944 23.7136C22.5438 23.7136 25.3734 20.884 25.3734 17.4346C25.3734 13.9852 22.5707 11.1556 19.0944 11.1556Z" fill="#3A2D55"/>
<path d="M20.4687 13.0689C19.3369 13.3115 19.0944 15.8177 19.795 16.5183C20.2532 16.9765 21.1694 17.1112 21.1694 17.4346C21.1694 17.758 20.2532 17.8927 19.795 18.3508C19.1213 19.0246 19.3369 21.5577 20.4687 21.7733C21.8431 22.0428 23.8912 20.3989 23.8912 17.4346C23.8912 14.4703 21.8431 12.7995 20.4687 13.0689Z" fill="#3A2D55"/>
<path d="M15.8336 26.4893C16.0492 27.163 16.8038 28.4835 17.72 28.241C18.1512 28.1332 18.3937 27.5673 18.3937 26.651" fill="white"/>
<path d="M21.8431 25.8965C22.0587 26.8127 22.3013 27.4864 22.975 27.4864C23.6487 27.4864 24.5649 26.5702 24.3493 24.9802" fill="white"/>
<path d="M27.61 22.7435C27.3136 22.4201 26.9094 22.2045 26.4782 22.1237H26.4513C26.2626 22.0967 26.074 22.2584 26.074 22.4471C26.074 22.6357 26.2087 22.8243 26.3974 22.8243C26.586 22.8513 26.7746 22.9052 26.9633 22.986C25.1847 24.1718 23.1905 25.0611 21.1424 25.5461C18.9865 26.0582 16.7498 26.1659 14.567 25.8426C14.4053 25.8156 14.2436 25.9234 14.2167 26.0851C14.1897 26.2468 14.2975 26.4085 14.4592 26.4354C14.8095 26.4893 15.1329 26.5163 15.4832 26.5702V26.5971C15.7797 27.4595 16.5342 28.6452 17.5044 28.6452C17.6122 28.6452 17.693 28.6452 17.8008 28.6183C18.1511 28.5374 18.7709 28.1601 18.7709 26.678C18.7709 26.651 18.7709 26.6241 18.7709 26.6241C19.6333 26.5432 20.4687 26.4354 21.3041 26.2198C21.3849 26.1929 21.4658 26.1659 21.5466 26.1659C21.7353 26.9475 22.0317 27.9176 23.0019 27.9176C23.4061 27.9176 23.8373 27.702 24.1606 27.3247C24.4301 27.0013 24.8882 26.2737 24.7266 25.088C25.6698 24.6568 26.586 24.1448 27.4753 23.5519C27.5561 23.6867 27.637 23.8484 27.6639 24.0101C27.6909 24.1179 27.7987 24.1987 27.9334 24.1987C28.0682 24.1987 28.176 24.064 28.149 23.9292C28.0951 23.4711 27.9065 23.0669 27.61 22.7435ZM18.0433 26.651C18.0433 27.3517 17.8816 27.8368 17.6391 27.8906C17.1001 28.0254 16.5612 27.2169 16.2917 26.6241C16.8576 26.651 17.4505 26.651 18.0433 26.651C18.0433 26.6241 18.0433 26.6241 18.0433 26.651ZM23.5947 26.7858C23.4061 27.0013 23.1635 27.1361 22.9749 27.1361C22.6246 27.1361 22.4629 26.8397 22.2203 25.9234C22.8402 25.7617 23.433 25.5461 24.0259 25.3036C24.0528 25.9234 23.9181 26.4354 23.5947 26.7858Z" fill="#3A2D55"/>
<path d="M34.994 8.99975C32.2452 6.54744 28.3377 5.20001 24.0529 5.20001C19.7411 5.20001 15.8605 6.54744 13.1118 8.99975C10.3361 11.479 8.80005 14.9554 8.80005 18.8359C8.80005 22.5548 12.5189 40.0983 12.6806 40.8528C12.9501 42.0116 13.9472 42.7931 15.106 42.7931C15.2407 42.7931 15.3755 42.7931 15.5102 42.7662C15.7528 42.7392 15.9683 42.6584 16.1839 42.5506C16.6421 42.7662 17.181 42.847 17.693 42.7392C18.0703 42.6584 18.4476 42.4967 18.744 42.2542C19.0135 42.4697 19.31 42.6314 19.6603 42.7123C20.1993 42.847 20.7921 42.7931 21.3041 42.5775C21.6545 42.4158 21.9778 42.1733 22.2204 41.8769C22.409 42.0925 22.6246 42.3081 22.8671 42.4428C23.0558 42.5506 23.2714 42.6584 23.487 42.7123C23.7025 42.7662 23.9451 42.7931 24.1607 42.7931C24.3763 42.7931 24.6188 42.7662 24.8344 42.7123C25.05 42.6314 25.2656 42.5506 25.4542 42.4428C25.6428 42.335 25.8315 42.1733 25.9662 42.0116C26.0201 41.9577 26.0471 41.9308 26.074 41.8769C26.4513 42.3619 27.0172 42.6853 27.637 42.7662C28.2299 42.874 28.8767 42.7123 29.3887 42.3619C29.4426 42.335 29.4965 42.2811 29.5234 42.2542C29.8199 42.4967 30.1702 42.6584 30.5205 42.7392C30.79 42.7931 31.0325 42.8201 31.302 42.7662C31.5446 42.7392 31.7601 42.6853 31.9757 42.5775C32.1644 42.6584 32.353 42.7123 32.5686 42.7662C33.8621 42.9818 35.1018 42.1464 35.3982 40.8528C35.5599 40.0983 39.2788 22.5818 39.2788 18.8629C39.2788 14.9823 37.7696 11.479 34.994 8.99975ZM34.6975 40.6911C34.5089 41.5804 33.6735 42.1464 32.7842 42.0655C32.9459 41.9038 33.1076 41.7152 33.2154 41.4996C33.3501 41.2571 33.431 41.0145 33.4848 40.772L33.5926 40.0983L34.0238 37.4304C34.1586 36.5411 34.2933 35.6518 34.428 34.7625C34.455 34.6277 34.3741 34.5199 34.2394 34.493C34.1047 34.466 33.9699 34.5469 33.943 34.6816C33.7543 35.5709 33.5657 36.4333 33.404 37.3226L32.892 39.9635L32.7572 40.6103C32.7303 40.7989 32.6494 40.9606 32.5686 41.1223C32.4878 41.284 32.353 41.4188 32.2183 41.5535C32.0835 41.6882 31.9218 41.796 31.7601 41.8499C31.5985 41.9308 31.4098 41.9847 31.2212 41.9847C31.0325 42.0116 30.8439 41.9847 30.6822 41.9577C30.4397 41.9038 30.2241 41.823 30.0354 41.6882C30.1971 41.4457 30.3319 41.1493 30.4127 40.8528C30.4397 40.772 30.4397 40.6911 30.4666 40.6372C30.4666 40.6103 30.4666 40.5564 30.4936 40.5294V40.4217L30.5205 40.0444L30.6014 39.2629L30.7631 37.6999C30.8708 36.6489 30.9517 35.6248 31.0325 34.5738C31.0325 34.4391 30.9517 34.3313 30.8169 34.3044C30.6822 34.2774 30.5744 34.3852 30.5475 34.5199C30.3858 35.544 30.251 36.595 30.1163 37.619L29.9276 39.182L29.8199 39.9635C29.7929 40.2061 29.766 40.5025 29.7121 40.6911C29.6043 41.1223 29.3348 41.4726 28.9844 41.7152C28.6341 41.9577 28.176 42.0386 27.7448 41.9847C27.3136 41.9308 26.9364 41.6882 26.6399 41.3649C26.586 41.284 26.5052 41.2032 26.4513 41.0954C26.4782 40.9876 26.5052 40.8798 26.5321 40.772C26.586 40.5564 26.586 40.3139 26.586 40.1252L26.613 38.9664C26.6399 38.1849 26.6399 37.4304 26.6399 36.6489C26.6399 35.8674 26.6399 35.1128 26.6399 34.3313C26.6399 34.1966 26.5321 34.0888 26.4243 34.0888C26.2896 34.0888 26.1818 34.1696 26.1818 34.3044C26.1279 35.0589 26.101 35.8404 26.0471 36.595C26.0201 37.3495 25.9662 38.131 25.9393 38.8856L25.8854 40.0444C25.8854 40.1252 25.8854 40.233 25.8584 40.3139C25.8584 40.3947 25.8315 40.4756 25.8315 40.5564C25.8045 40.7181 25.7506 40.8528 25.6698 41.0145C25.3734 41.5804 24.7535 41.9577 24.1068 41.9308C23.9451 41.9308 23.7834 41.9038 23.6487 41.8769C23.487 41.8499 23.3522 41.7691 23.2175 41.6882C22.948 41.5265 22.7324 41.284 22.5707 41.0145C22.4899 40.8798 22.436 40.7181 22.409 40.5833C22.3821 40.4217 22.3551 40.2869 22.3551 40.0713L22.3012 38.9125C22.2743 38.158 22.2473 37.3765 22.1934 36.6219C22.1665 35.8674 22.1126 35.0859 22.0587 34.3313C22.0587 34.1966 21.9509 34.1157 21.8162 34.1157C21.6814 34.1157 21.5736 34.2235 21.5736 34.3583C21.5736 35.1398 21.5736 35.8943 21.5736 36.6758C21.5736 37.4573 21.6006 38.2119 21.6006 38.9934L21.6275 40.1522C21.6275 40.3408 21.6275 40.5833 21.6814 40.7989C21.7084 40.9067 21.7353 41.0145 21.7892 41.1493C21.6006 41.4726 21.3041 41.7421 20.9808 41.8769C20.6304 42.0386 20.2262 42.0655 19.8489 41.9847C19.4716 41.8769 19.1213 41.6613 18.8788 41.3379C18.771 41.1762 18.6632 41.0145 18.6093 40.8259C18.5823 40.745 18.5554 40.6372 18.5284 40.5294C18.5284 40.4756 18.5015 40.4217 18.5015 40.3678L18.4745 40.1791L18.1242 37.3495C17.9895 36.4063 17.8817 35.4631 17.72 34.5199C17.693 34.3852 17.5852 34.3044 17.4775 34.3044C17.3427 34.3044 17.2349 34.4391 17.2619 34.5738C17.3427 35.517 17.4236 36.4602 17.5044 37.4034L17.7739 40.233L17.8008 40.4217C17.8008 40.4756 17.8008 40.5294 17.8278 40.6103C17.8547 40.745 17.8817 40.8798 17.9086 41.0145C17.9895 41.2571 18.0973 41.4726 18.232 41.6613C18.0164 41.796 17.8008 41.9038 17.5314 41.9577C17.181 42.0116 16.8037 41.9847 16.4534 41.823C16.13 41.6613 15.8336 41.3918 15.6719 41.0684C15.5911 40.9067 15.5102 40.745 15.4833 40.5564L15.3485 39.9096L14.8365 37.2956C14.6479 36.4333 14.4862 35.544 14.2975 34.6816C14.2706 34.5738 14.1628 34.466 14.0281 34.493C13.8933 34.5199 13.8125 34.6277 13.8125 34.7625C13.9203 35.6518 14.055 36.5411 14.2167 37.4034L14.6479 40.0444L14.7557 40.6911C14.8096 40.9606 14.8904 41.2032 14.9982 41.4188C15.106 41.6343 15.2677 41.823 15.4294 41.9847C15.4024 41.9847 15.3755 42.0116 15.3485 42.0116C14.4323 42.1733 13.543 41.5804 13.3543 40.6642C13.3274 40.4756 9.47376 22.447 9.47376 18.809C9.47376 15.144 10.902 11.8563 13.543 9.51177C16.2109 7.1942 19.9298 5.92762 24.0529 5.92762C28.176 5.92762 31.8949 7.22115 34.5089 9.56566C37.1229 11.9102 38.5781 15.1979 38.5781 18.8629C38.5781 22.474 34.7245 40.5025 34.6975 40.6911Z" fill="#3A2D55"/>
</svg>
